<?xml version="1.0" standalone="no"?>
<!DOCTYPE svg PUBLIC "-//W3C//DTD SVG 20010904//EN"
 "http://www.w3.org/TR/2001/REC-SVG-20010904/DTD/svg10.dtd">
<svg version="1.0" xmlns="http://www.w3.org/2000/svg"
 width="94.000000pt" height="24.000000pt" viewBox="0 0 94.000000 24.000000"
 preserveAspectRatio="xMidYMid meet">

<g transform="translate(0.000000,24.000000) scale(0.100000,-0.100000)"
fill="#000000" stroke="none">
<path d="M75 231 c-62 -27 -93 -113 -59 -170 35 -60 44 -61 459 -61 418 0 419
0 450 66 25 52 19 90 -19 132 l-34 37 -389 2 c-213 1 -397 -2 -408 -6z m274
-55 c17 -20 6 -38 -42 -68 -52 -34 -78 -20 -34 18 l28 24 -35 0 c-32 0 -35 -3
-51 -50 -12 -37 -22 -50 -36 -50 -10 0 -19 2 -19 3 0 7 39 118 45 127 10 16
131 12 144 -4z m355 8 c25 -10 19 -41 -14 -64 -25 -18 -28 -24 -18 -40 27 -43
-20 -36 -49 7 -13 19 -11 22 19 42 l33 22 -40 -3 c-37 -3 -40 -5 -54 -50 -10
-34 -20 -48 -33 -48 -23 0 -23 3 3 78 l21 62 58 0 c32 0 65 -3 74 -6z m81 -7
c3 -7 -3 -37 -13 -67 -14 -41 -24 -56 -40 -58 l-21 -3 19 58 c11 32 22 64 25
71 6 16 24 16 30 -1z m-265 -9 c0 -29 -35 -118 -47 -118 -16 0 -16 10 -3 44
13 36 -2 34 -62 -9 -43 -32 -68 -38 -68 -17 0 4 25 23 55 42 30 19 55 38 55
43 0 4 -16 7 -35 7 -19 0 -35 5 -35 10 0 6 30 10 70 10 47 0 70 -4 70 -12z"/>
</g>
</svg>
